<svg width="180" height="180" viewBox="0 0 180 180" fill="none" xmlns="http://www.w3.org/2000/svg">
<rect width="180" height="180" fill="url(#paint0_linear_517_9)"/>
<path d="M25.8167 76.0833C26.9676 76.0833 28.1533 76.2751 29.374 76.6587C30.5946 77.0424 31.7107 77.6004 32.7221 78.3328C33.7683 79.0651 34.6053 79.9894 35.2331 81.1054C35.8609 82.1865 36.1747 83.4595 36.1747 84.9243C36.1747 86.1449 35.826 87.3307 35.1285 88.4816C34.4658 89.6325 33.5939 90.6439 32.5128 91.5158C31.4665 92.3877 30.3679 93.0154 29.217 93.3991C30.1238 94.8987 30.9957 96.2763 31.8327 97.5318C32.6697 98.7873 33.5416 100.043 34.4484 101.298C35.3552 102.519 36.3666 103.879 37.4826 105.379C38.215 106.355 38.9997 107.088 39.8367 107.576C40.7086 108.064 41.842 108.361 43.2371 108.465C43.3766 108.605 43.4115 108.866 43.3417 109.25C43.272 109.634 43.2196 109.86 43.1848 109.93C41.4759 109.93 40.046 109.878 38.8951 109.773C37.779 109.634 36.9595 109.477 36.4363 109.302C36.0876 109.163 35.5993 108.954 34.9715 108.675C34.3438 108.361 33.7335 107.82 33.1406 107.053C32.9313 106.774 32.5477 106.233 31.9897 105.431C31.4317 104.629 30.769 103.653 30.0018 102.502C29.2345 101.351 28.4149 100.13 27.543 98.8397C26.6711 97.5144 25.8341 96.224 25.032 94.9685C24.753 94.55 24.2298 94.3407 23.4626 94.3407H20.7946V103.862C20.7946 103.966 20.7946 104.071 20.7946 104.176C20.7946 104.28 20.7946 104.385 20.7946 104.49C20.7946 105.152 20.7946 105.762 20.7946 106.32C20.8294 106.844 20.8992 107.28 21.0038 107.628C21.0736 107.803 21.3526 107.96 21.8408 108.099C22.3291 108.239 22.8522 108.343 23.4102 108.413C23.9683 108.448 24.3519 108.465 24.5611 108.465C24.6658 108.605 24.7181 108.849 24.7181 109.198C24.753 109.547 24.7006 109.791 24.5611 109.93C23.5149 109.86 22.5035 109.808 21.527 109.773C20.5853 109.703 19.6088 109.669 18.5974 109.669C17.6209 109.669 16.6269 109.703 15.6155 109.773C14.6041 109.808 13.5753 109.86 12.529 109.93C12.3895 109.791 12.3198 109.547 12.3198 109.198C12.3547 108.849 12.4244 108.605 12.529 108.465C12.7383 108.465 13.1219 108.448 13.6799 108.413C14.2379 108.343 14.7611 108.239 15.2493 108.099C15.7725 107.96 16.0515 107.803 16.0864 107.628C16.2259 107.21 16.2956 106.669 16.2956 106.007C16.3305 105.344 16.3479 104.629 16.3479 103.862L16.2956 82.047C16.2956 81.2798 16.2782 80.5648 16.2433 79.9022C16.2433 79.2046 16.1735 78.6466 16.034 78.2281C15.9992 78.0189 15.7202 77.8619 15.197 77.7573C14.7088 77.6527 14.1856 77.5829 13.6276 77.5481C13.1045 77.4783 12.7383 77.4434 12.529 77.4434C12.4244 77.3039 12.3547 77.0598 12.3198 76.711C12.3198 76.3623 12.3895 76.1181 12.529 75.9786C13.5753 76.0135 14.5867 76.0658 15.5632 76.1356C16.5746 76.1705 17.5686 76.1879 18.5451 76.1879C19.5565 76.1879 20.6376 76.1705 21.7885 76.1356C22.9743 76.1007 24.317 76.0833 25.8167 76.0833ZM31.4142 85.3951C31.4142 83.163 30.8039 81.3321 29.5832 79.9022C28.3975 78.4723 26.3921 77.7573 23.5672 77.7573C23.2533 77.7573 22.765 77.7747 22.1024 77.8096C21.4746 77.8445 21.1085 77.984 21.0038 78.2281C20.8643 78.542 20.7771 79.0826 20.7423 79.8498C20.7423 80.5822 20.7423 81.3321 20.7423 82.0993L20.7946 92.7713H23.5149C24.8401 92.7713 26.0957 92.4748 27.2814 91.882C28.5021 91.2542 29.4961 90.3997 30.2633 89.3186C31.0306 88.2026 31.4142 86.8947 31.4142 85.3951ZM47.0404 97.1133C47.0056 99.2756 47.3718 101.089 48.139 102.554C48.9063 104.019 49.9351 105.117 51.2255 105.85C52.5159 106.547 53.9109 106.896 55.4106 106.896C56.3522 106.896 57.2067 106.739 57.974 106.425C58.7412 106.076 59.3864 105.693 59.9096 105.274C60.4327 104.821 60.7989 104.472 61.0081 104.228C61.043 104.228 61.1128 104.298 61.2174 104.437C61.3569 104.542 61.4267 104.699 61.4267 104.908C61.4267 105.187 61.322 105.501 61.1128 105.85C60.7989 106.338 60.3106 106.931 59.648 107.628C58.9854 108.291 58.1483 108.884 57.1369 109.407C56.1256 109.93 54.9572 110.192 53.6319 110.192C51.644 110.192 49.8828 109.721 48.3483 108.779C46.8137 107.838 45.6105 106.565 44.7386 104.96C43.8667 103.356 43.4308 101.56 43.4308 99.5721C43.4308 97.8631 43.7272 96.2763 44.3201 94.8115C44.9479 93.3119 45.75 92.0215 46.7266 90.9403C47.7379 89.8243 48.8365 88.9524 50.0223 88.3246C51.2081 87.6969 52.359 87.383 53.475 87.383C55.0095 87.383 56.2651 87.6446 57.2416 88.1677C58.253 88.6908 59.0377 89.336 59.5957 90.1033C60.1886 90.8706 60.5896 91.6378 60.7989 92.4051C61.043 93.1724 61.1651 93.8176 61.1651 94.3407C61.1651 95.0731 61.0779 95.6485 60.9035 96.067C60.7291 96.4856 60.3978 96.7122 59.9096 96.7471C59.5957 96.782 58.9679 96.8169 58.0263 96.8517C57.1195 96.8517 56.0732 96.8692 54.8875 96.9041C53.7017 96.9389 52.5334 96.9738 51.3825 97.0087C50.2316 97.0436 49.255 97.0784 48.4529 97.1133C47.6508 97.1133 47.1799 97.1133 47.0404 97.1133ZM47.302 95.23H55.6199C55.9337 95.23 56.1953 95.1428 56.4046 94.9685C56.6487 94.7941 56.7882 94.4802 56.8231 94.0268C56.8579 93.6083 56.7359 93.0154 56.4569 92.2482C56.1779 91.4809 55.7245 90.7834 55.0967 90.1556C54.5038 89.5279 53.6843 89.214 52.638 89.214C51.5568 89.214 50.6675 89.5279 49.97 90.1556C49.2725 90.7485 48.7145 91.446 48.296 92.2482C47.9123 93.0154 47.6333 93.7129 47.4589 94.3407C47.3194 94.9336 47.2671 95.23 47.302 95.23ZM67.8584 81.2623C67.8584 80.8787 67.8409 80.4253 67.806 79.9022C67.806 79.3442 67.7363 78.9082 67.5968 78.5943C67.4573 78.2107 67.0737 77.9666 66.4459 77.8619C65.853 77.7573 65.2078 77.705 64.5103 77.705C64.4754 77.705 64.4405 77.4957 64.4057 77.0772C64.4057 76.6238 64.458 76.3797 64.5626 76.3448C65.853 76.2053 67.1085 75.9612 68.3292 75.6125C69.5498 75.2288 70.7007 74.7929 71.7819 74.3046C71.9214 74.3046 72.0434 74.4092 72.1481 74.6185C72.2876 74.7929 72.3573 74.9673 72.3573 75.1416C72.3573 75.1416 72.2527 75.5253 72.0434 76.2925C71.8691 77.0598 71.7819 78.1584 71.7819 79.5883V103.862C71.7819 104.629 71.7819 105.344 71.7819 106.007C71.8168 106.669 71.9039 107.21 72.0434 107.628C72.1132 107.803 72.3573 107.96 72.7758 108.099C73.2292 108.239 73.7 108.343 74.1883 108.413C74.7114 108.448 75.0776 108.465 75.2869 108.465C75.3915 108.605 75.4438 108.849 75.4438 109.198C75.4787 109.547 75.4264 109.791 75.2869 109.93C74.2406 109.86 73.3164 109.808 72.5143 109.773C71.7121 109.703 70.8054 109.669 69.794 109.669C68.8174 109.669 67.9281 109.703 67.126 109.773C66.3587 109.808 65.4519 109.86 64.4057 109.93C64.2662 109.791 64.1964 109.547 64.1964 109.198C64.2313 108.849 64.301 108.605 64.4057 108.465C64.6149 108.465 64.9637 108.448 65.4519 108.413C65.9402 108.343 66.411 108.239 66.8644 108.099C67.3178 107.96 67.5619 107.803 67.5968 107.628C67.7363 107.21 67.806 106.669 67.806 106.007C67.8409 105.344 67.8584 104.629 67.8584 103.862V81.2623ZM94.1733 93.4514C94.1733 93.4165 94.1733 93.3467 94.1733 93.2421C94.1733 92.8934 94.1559 92.4749 94.121 91.9866C94.0861 91.4635 93.9815 91.0275 93.8071 90.6788C93.563 90.1905 93.1096 89.894 92.447 89.7894C91.7843 89.6848 91.2786 89.6325 90.9299 89.6325C90.8601 89.5627 90.8078 89.3709 90.7729 89.057C90.7729 88.7083 90.8252 88.4641 90.9299 88.3246C92.2551 88.2549 93.5281 88.1328 94.7487 87.9584C95.9694 87.7841 97.0331 87.5574 97.9399 87.2784C98.0794 87.2784 98.2014 87.4528 98.3061 87.8015C98.4107 88.1503 98.463 88.3944 98.463 88.5339C98.3584 88.7432 98.2712 89.1617 98.2014 89.7894C98.1666 90.4172 98.1491 91.0973 98.1491 91.8296V102.554C98.1491 102.833 98.1666 103.391 98.2014 104.228C98.2363 105.03 98.3235 105.78 98.463 106.477C98.5676 106.896 98.9513 107.14 99.6139 107.21C100.311 107.28 100.835 107.332 101.183 107.367C101.358 107.367 101.462 107.367 101.497 107.367C101.567 107.402 101.602 107.489 101.602 107.628C101.637 107.768 101.654 107.872 101.654 107.942C101.654 107.977 101.619 108.117 101.55 108.361C101.48 108.605 101.375 108.727 101.236 108.727C100.364 108.762 99.4047 108.901 98.3584 109.145C97.347 109.39 96.4751 109.616 95.7427 109.826C95.0103 110.07 94.6267 110.192 94.5918 110.192C94.4523 110.192 94.3477 110.087 94.2779 109.878C94.2082 109.703 94.1733 109.529 94.1733 109.355V107.001C94.1733 106.861 94.1559 106.791 94.121 106.791C94.0861 106.756 94.0687 106.739 94.0687 106.739C93.6153 107.227 92.9875 107.75 92.1854 108.308C91.3832 108.832 90.5114 109.267 89.5697 109.616C88.6281 109.965 87.7213 110.139 86.8494 110.139C85.4893 110.139 84.3907 109.826 83.5536 109.198C82.7166 108.535 82.0714 107.698 81.618 106.687C81.1647 105.64 80.8508 104.524 80.6764 103.339C80.5369 102.153 80.4672 101.019 80.4672 99.9382V93.4514C80.4672 93.1026 80.4497 92.6492 80.4148 92.0912C80.38 91.5332 80.2579 91.0624 80.0486 90.6788C79.8045 90.1905 79.3511 89.894 78.6885 89.7894C78.0259 89.6848 77.5202 89.6325 77.1714 89.6325C77.1016 89.5627 77.0493 89.3709 77.0145 89.057C77.0145 88.7083 77.0668 88.4641 77.1714 88.3246C78.4967 88.2549 79.7696 88.1328 80.9903 87.9584C82.2109 87.7841 83.2746 87.5574 84.1814 87.2784C84.3209 87.2784 84.443 87.4179 84.5476 87.6969C84.6871 87.9759 84.7569 88.1851 84.7569 88.3246C84.6522 88.5339 84.565 88.9873 84.4953 89.6848C84.4255 90.3823 84.3907 91.0973 84.3907 91.8296V99.3628C84.3907 102.083 84.7917 104.088 85.5939 105.379C86.4309 106.634 87.7387 107.262 89.5174 107.262C90.2847 107.262 91.017 107.123 91.7146 106.844C92.4121 106.53 92.9875 106.146 93.4409 105.693C93.9292 105.239 94.1733 104.821 94.1733 104.437V93.4514ZM118.915 87.383C120.45 87.383 121.688 87.7143 122.629 88.377C123.606 89.0047 124.303 90.0859 124.722 91.6204C125.838 90.609 127.059 89.6499 128.384 88.7432C129.744 87.8364 131.034 87.383 132.255 87.383C134.104 87.383 135.499 87.7666 136.44 88.5339C137.382 89.3012 138.01 90.4869 138.323 92.0912C138.672 93.6955 138.847 95.7357 138.847 98.2119V103.862C138.847 104.629 138.847 105.344 138.847 106.007C138.881 106.669 138.969 107.21 139.108 107.628C139.178 107.803 139.422 107.96 139.841 108.099C140.294 108.239 140.765 108.343 141.253 108.413C141.741 108.448 142.09 108.465 142.299 108.465C142.404 108.605 142.456 108.849 142.456 109.198C142.491 109.547 142.439 109.791 142.299 109.93C141.253 109.86 140.329 109.808 139.527 109.773C138.759 109.703 137.87 109.669 136.859 109.669C135.882 109.669 134.993 109.703 134.191 109.773C133.389 109.808 132.464 109.86 131.418 109.93C131.279 109.791 131.209 109.547 131.209 109.198C131.244 108.849 131.313 108.605 131.418 108.465C131.627 108.465 131.976 108.448 132.464 108.413C132.987 108.343 133.476 108.239 133.929 108.099C134.383 107.96 134.627 107.803 134.662 107.628C134.766 107.28 134.818 106.844 134.818 106.32C134.853 105.762 134.871 105.152 134.871 104.49C134.871 104.385 134.871 104.28 134.871 104.176C134.871 104.071 134.871 103.966 134.871 103.862V98.3688C134.871 96.6599 134.749 95.2126 134.505 94.0268C134.295 92.841 133.859 91.9343 133.197 91.3065C132.534 90.6788 131.505 90.3649 130.11 90.3649C129.273 90.3649 128.471 90.5916 127.704 91.0449C126.937 91.4635 126.309 91.9168 125.821 92.4051C125.332 92.8585 125.088 93.1549 125.088 93.2944C125.088 93.3293 125.088 93.4339 125.088 93.6083C125.123 93.7478 125.14 93.8524 125.14 93.9222C125.21 94.4105 125.263 95.0208 125.297 95.7532C125.332 96.4856 125.35 97.0959 125.35 97.5841V103.862C125.35 104.629 125.35 105.344 125.35 106.007C125.385 106.669 125.472 107.21 125.611 107.628C125.681 107.803 125.925 107.96 126.344 108.099C126.797 108.239 127.268 108.343 127.756 108.413C128.244 108.448 128.593 108.465 128.802 108.465C128.907 108.605 128.959 108.849 128.959 109.198C128.994 109.547 128.942 109.791 128.802 109.93C127.756 109.86 126.832 109.808 126.03 109.773C125.263 109.703 124.373 109.669 123.362 109.669C122.385 109.669 121.496 109.703 120.694 109.773C119.892 109.808 118.967 109.86 117.921 109.93C117.782 109.791 117.712 109.547 117.712 109.198C117.747 108.849 117.817 108.605 117.921 108.465C118.13 108.465 118.479 108.448 118.967 108.413C119.491 108.343 119.979 108.239 120.432 108.099C120.886 107.96 121.13 107.803 121.165 107.628C121.304 107.21 121.374 106.669 121.374 106.007C121.409 105.344 121.426 104.629 121.426 103.862V98.6304C121.426 95.5265 121.077 93.3816 120.38 92.1958C119.717 90.9752 118.462 90.3649 116.613 90.3649C115.846 90.3649 115.096 90.5567 114.364 90.9403C113.631 91.324 113.021 91.7425 112.533 92.1958C112.08 92.6144 111.853 92.9457 111.853 93.1898V103.862C111.853 104.629 111.853 105.344 111.853 106.007C111.888 106.669 111.975 107.21 112.114 107.628C112.184 107.803 112.428 107.96 112.847 108.099C113.3 108.239 113.771 108.343 114.259 108.413C114.748 108.448 115.096 108.465 115.306 108.465C115.41 108.605 115.462 108.849 115.462 109.198C115.497 109.547 115.445 109.791 115.306 109.93C114.259 109.86 113.335 109.808 112.533 109.773C111.766 109.703 110.876 109.669 109.865 109.669C108.888 109.669 107.999 109.703 107.197 109.773C106.395 109.808 105.471 109.86 104.424 109.93C104.285 109.791 104.215 109.547 104.215 109.198C104.25 108.849 104.32 108.605 104.424 108.465C104.634 108.465 104.982 108.448 105.471 108.413C105.994 108.343 106.482 108.239 106.935 108.099C107.389 107.96 107.633 107.803 107.668 107.628C107.807 107.21 107.877 106.669 107.877 106.007C107.912 105.344 107.929 104.629 107.929 103.862V94.55C107.929 94.2012 107.912 93.7129 107.877 93.0852C107.877 92.4574 107.807 91.9866 107.668 91.6727C107.563 91.3588 107.267 91.1496 106.778 91.0449C106.29 90.9054 105.802 90.8357 105.314 90.8357C104.825 90.8008 104.511 90.7834 104.372 90.7834C104.337 90.7136 104.302 90.5044 104.267 90.1556C104.232 89.8069 104.267 89.5627 104.372 89.4232C105.697 89.2488 106.988 88.9873 108.243 88.6385C109.499 88.2898 110.632 87.8364 111.644 87.2784C111.783 87.2784 111.905 87.383 112.01 87.5923C112.149 87.8015 112.219 87.9759 112.219 88.1154C112.219 88.22 112.184 88.4641 112.114 88.8478C112.08 89.2314 112.027 89.615 111.957 89.9987C111.923 90.3823 111.905 90.6439 111.905 90.7834C111.905 90.9229 111.94 90.9926 112.01 90.9926C112.045 90.9926 112.097 90.9578 112.167 90.888C112.585 90.5044 113.143 90.051 113.841 89.5279C114.538 88.9698 115.323 88.4816 116.195 88.0631C117.102 87.6097 118.008 87.383 118.915 87.383ZM155.926 87.3307C158.193 87.3307 160.129 87.8189 161.733 88.7955C163.372 89.772 164.628 91.0973 165.5 92.7713C166.406 94.4453 166.86 96.3461 166.86 98.4735C166.86 100.671 166.389 102.659 165.447 104.437C164.506 106.181 163.215 107.576 161.576 108.622C159.937 109.634 158.088 110.139 156.031 110.139C153.799 110.139 151.846 109.651 150.172 108.675C148.533 107.663 147.26 106.32 146.353 104.646C145.481 102.938 145.045 101.019 145.045 98.892C145.045 96.6948 145.516 94.7243 146.457 92.9805C147.434 91.2368 148.742 89.8592 150.381 88.8478C152.02 87.8364 153.868 87.3307 155.926 87.3307ZM155.351 89.057C153.921 89.057 152.77 89.493 151.898 90.3649C151.026 91.2019 150.398 92.3005 150.015 93.6606C149.631 94.9859 149.439 96.3809 149.439 97.8457C149.439 99.4849 149.701 101.124 150.224 102.763C150.782 104.402 151.584 105.762 152.63 106.844C153.712 107.925 155.019 108.465 156.554 108.465C158.019 108.465 159.17 108.047 160.007 107.21C160.879 106.338 161.506 105.222 161.89 103.862C162.274 102.502 162.465 101.107 162.465 99.6767C162.465 98.0026 162.186 96.3635 161.628 94.7592C161.07 93.12 160.268 91.7599 159.222 90.6788C158.176 89.5976 156.885 89.057 155.351 89.057Z" fill="white"/>
<defs>
<linearGradient id="paint0_linear_517_9" x1="4.75482e-08" y1="20.25" x2="171.614" y2="175.909" gradientUnits="userSpaceOnUse">
<stop stop-color="#2D81FF"/>
<stop offset="1" stop-color="#47CA5B"/>
</linearGradient>
</defs>
</svg>
