<svg width="390" height="97" viewBox="0 0 390 97" fill="none" xmlns="http://www.w3.org/2000/svg">
<mask id="mask0_517_14" style="mask-type:alpha" maskUnits="userSpaceOnUse" x="5" y="8" width="379" height="89">
<path d="M38.144 12.568C40.96 12.568 43.8613 13.0373 46.848 13.976C49.8347 14.9147 52.5653 16.28 55.04 18.072C57.6 19.864 59.648 22.1253 61.184 24.856C62.72 27.5013 63.488 30.616 63.488 34.2C63.488 37.1867 62.6347 40.088 60.928 42.904C59.3067 45.72 57.1733 48.1947 54.528 50.328C51.968 52.4613 49.28 53.9973 46.464 54.936C48.6827 58.6053 50.816 61.976 52.864 65.048C54.912 68.12 57.0453 71.192 59.264 74.264C61.4827 77.2507 63.9573 80.5787 66.688 84.248C68.48 86.6373 70.4 88.4293 72.448 89.624C74.5813 90.8187 77.3547 91.544 80.768 91.8C81.1093 92.1413 81.1947 92.7813 81.024 93.72C80.8533 94.6587 80.7253 95.2133 80.64 95.384C76.4587 95.384 72.96 95.256 70.144 95C67.4133 94.6587 65.408 94.2747 64.128 93.848C63.2747 93.5067 62.08 92.9947 60.544 92.312C59.008 91.544 57.5147 90.2213 56.064 88.344C55.552 87.6613 54.6133 86.3387 53.248 84.376C51.8827 82.4133 50.2613 80.024 48.384 77.208C46.5067 74.392 44.5013 71.4053 42.368 68.248C40.2347 65.0053 38.1867 61.848 36.224 58.776C35.5413 57.752 34.2613 57.24 32.384 57.24H25.856V80.536C25.856 80.792 25.856 81.048 25.856 81.304C25.856 81.56 25.856 81.816 25.856 82.072C25.856 83.6933 25.856 85.1867 25.856 86.552C25.9413 87.832 26.112 88.8987 26.368 89.752C26.5387 90.1787 27.2213 90.5627 28.416 90.904C29.6107 91.2453 30.8907 91.5013 32.256 91.672C33.6213 91.7573 34.56 91.8 35.072 91.8C35.328 92.1413 35.456 92.7387 35.456 93.592C35.5413 94.4453 35.4133 95.0427 35.072 95.384C32.512 95.2133 30.0373 95.0853 27.648 95C25.344 94.8293 22.9547 94.744 20.48 94.744C18.0907 94.744 15.6587 94.8293 13.184 95C10.7093 95.0853 8.192 95.2133 5.632 95.384C5.29067 95.0427 5.12 94.4453 5.12 93.592C5.20533 92.7387 5.376 92.1413 5.632 91.8C6.144 91.8 7.08267 91.7573 8.448 91.672C9.81333 91.5013 11.0933 91.2453 12.288 90.904C13.568 90.5627 14.2507 90.1787 14.336 89.752C14.6773 88.728 14.848 87.4053 14.848 85.784C14.9333 84.1627 14.976 82.4133 14.976 80.536L14.848 27.16C14.848 25.2827 14.8053 23.5333 14.72 21.912C14.72 20.2053 14.5493 18.84 14.208 17.816C14.1227 17.304 13.44 16.92 12.16 16.664C10.9653 16.408 9.68533 16.2373 8.32 16.152C7.04 15.9813 6.144 15.896 5.632 15.896C5.376 15.5547 5.20533 14.9573 5.12 14.104C5.12 13.2507 5.29067 12.6533 5.632 12.312C8.192 12.3973 10.6667 12.5253 13.056 12.696C15.5307 12.7813 17.9627 12.824 20.352 12.824C22.8267 12.824 25.472 12.7813 28.288 12.696C31.1893 12.6107 34.4747 12.568 38.144 12.568ZM51.84 35.352C51.84 29.8907 50.3467 25.4107 47.36 21.912C44.4587 18.4133 39.552 16.664 32.64 16.664C31.872 16.664 30.6773 16.7067 29.056 16.792C27.52 16.8773 26.624 17.2187 26.368 17.816C26.0267 18.584 25.8133 19.9067 25.728 21.784C25.728 23.576 25.728 25.4107 25.728 27.288L25.856 53.4H32.512C35.7547 53.4 38.8267 52.6747 41.728 51.224C44.7147 49.688 47.1467 47.5973 49.024 44.952C50.9013 42.2213 51.84 39.0213 51.84 35.352ZM90.074 64.024C89.9887 69.3147 90.8847 73.752 92.762 77.336C94.6393 80.92 97.1567 83.608 100.314 85.4C103.471 87.1067 106.885 87.96 110.554 87.96C112.858 87.96 114.949 87.576 116.826 86.808C118.703 85.9547 120.282 85.016 121.562 83.992C122.842 82.8827 123.738 82.0293 124.25 81.432C124.335 81.432 124.506 81.6027 124.762 81.944C125.103 82.2 125.274 82.584 125.274 83.096C125.274 83.7787 125.018 84.5467 124.506 85.4C123.738 86.5947 122.543 88.0453 120.922 89.752C119.301 91.3733 117.253 92.824 114.778 94.104C112.303 95.384 109.445 96.024 106.202 96.024C101.338 96.024 97.0287 94.872 93.274 92.568C89.5193 90.264 86.5753 87.1493 84.442 83.224C82.3087 79.2987 81.242 74.904 81.242 70.04C81.242 65.8587 81.9673 61.976 83.418 58.392C84.954 54.7227 86.9167 51.5653 89.306 48.92C91.7807 46.1893 94.4687 44.056 97.37 42.52C100.271 40.984 103.087 40.216 105.818 40.216C109.573 40.216 112.645 40.856 115.034 42.136C117.509 43.416 119.429 44.9947 120.794 46.872C122.245 48.7493 123.226 50.6267 123.738 52.504C124.335 54.3813 124.634 55.96 124.634 57.24C124.634 59.032 124.421 60.44 123.994 61.464C123.567 62.488 122.757 63.0427 121.562 63.128C120.794 63.2133 119.258 63.2987 116.954 63.384C114.735 63.384 112.175 63.4267 109.274 63.512C106.373 63.5973 103.514 63.6827 100.698 63.768C97.882 63.8533 95.4927 63.9387 93.53 64.024C91.5673 64.024 90.4153 64.024 90.074 64.024ZM90.714 59.416H111.066C111.834 59.416 112.474 59.2027 112.986 58.776C113.583 58.3493 113.925 57.5813 114.01 56.472C114.095 55.448 113.797 53.9973 113.114 52.12C112.431 50.2427 111.322 48.536 109.786 47C108.335 45.464 106.33 44.696 103.77 44.696C101.125 44.696 98.9487 45.464 97.242 47C95.5353 48.4507 94.17 50.1573 93.146 52.12C92.2073 53.9973 91.5247 55.704 91.098 57.24C90.7567 58.6907 90.6287 59.416 90.714 59.416ZM141.011 25.24C141.011 24.3013 140.968 23.192 140.883 21.912C140.883 20.5467 140.712 19.48 140.371 18.712C140.03 17.7733 139.091 17.176 137.555 16.92C136.104 16.664 134.526 16.536 132.819 16.536C132.734 16.536 132.648 16.024 132.563 15C132.563 13.8907 132.691 13.2933 132.947 13.208C136.104 12.8667 139.176 12.2693 142.163 11.416C145.15 10.4773 147.966 9.41066 150.611 8.216C150.952 8.216 151.251 8.472 151.507 8.98399C151.848 9.41066 152.019 9.83733 152.019 10.264C152.019 10.264 151.763 11.2027 151.251 13.08C150.824 14.9573 150.611 17.6453 150.611 21.144V80.536C150.611 82.4133 150.611 84.1627 150.611 85.784C150.696 87.4053 150.91 88.728 151.251 89.752C151.422 90.1787 152.019 90.5627 153.043 90.904C154.152 91.2453 155.304 91.5013 156.499 91.672C157.779 91.7573 158.675 91.8 159.187 91.8C159.443 92.1413 159.571 92.7387 159.571 93.592C159.656 94.4453 159.528 95.0427 159.187 95.384C156.627 95.2133 154.366 95.0853 152.403 95C150.44 94.8293 148.222 94.744 145.747 94.744C143.358 94.744 141.182 94.8293 139.219 95C137.342 95.0853 135.123 95.2133 132.563 95.384C132.222 95.0427 132.051 94.4453 132.051 93.592C132.136 92.7387 132.307 92.1413 132.563 91.8C133.075 91.8 133.928 91.7573 135.123 91.672C136.318 91.5013 137.47 91.2453 138.579 90.904C139.688 90.5627 140.286 90.1787 140.371 89.752C140.712 88.728 140.883 87.4053 140.883 85.784C140.968 84.1627 141.011 82.4133 141.011 80.536V25.24ZM205.398 55.064C205.398 54.9787 205.398 54.808 205.398 54.552C205.398 53.6987 205.355 52.6747 205.27 51.48C205.185 50.2 204.929 49.1333 204.502 48.28C203.905 47.0853 202.795 46.36 201.174 46.104C199.553 45.848 198.315 45.72 197.462 45.72C197.291 45.5493 197.163 45.08 197.078 44.312C197.078 43.4587 197.206 42.8613 197.462 42.52C200.705 42.3493 203.819 42.0507 206.806 41.624C209.793 41.1973 212.395 40.6427 214.614 39.96C214.955 39.96 215.254 40.3867 215.51 41.24C215.766 42.0933 215.894 42.6907 215.894 43.032C215.638 43.544 215.425 44.568 215.254 46.104C215.169 47.64 215.126 49.304 215.126 51.096V77.336C215.126 78.0187 215.169 79.384 215.254 81.432C215.339 83.3947 215.553 85.2293 215.894 86.936C216.15 87.96 217.089 88.5573 218.71 88.728C220.417 88.8987 221.697 89.0267 222.55 89.112C222.977 89.112 223.233 89.112 223.318 89.112C223.489 89.1973 223.574 89.4107 223.574 89.752C223.659 90.0933 223.702 90.3493 223.702 90.52C223.702 90.6053 223.617 90.9467 223.446 91.544C223.275 92.1413 223.019 92.44 222.678 92.44C220.545 92.5253 218.198 92.8667 215.638 93.464C213.163 94.0613 211.03 94.616 209.238 95.128C207.446 95.7253 206.507 96.024 206.422 96.024C206.081 96.024 205.825 95.768 205.654 95.256C205.483 94.8293 205.398 94.4027 205.398 93.976V88.216C205.398 87.8747 205.355 87.704 205.27 87.704C205.185 87.6187 205.142 87.576 205.142 87.576C204.033 88.7707 202.497 90.0507 200.534 91.416C198.571 92.696 196.438 93.7627 194.134 94.616C191.83 95.4693 189.611 95.896 187.478 95.896C184.15 95.896 181.462 95.128 179.414 93.592C177.366 91.9707 175.787 89.9227 174.678 87.448C173.569 84.888 172.801 82.1573 172.374 79.256C172.033 76.3547 171.862 73.5813 171.862 70.936V55.064C171.862 54.2107 171.819 53.1013 171.734 51.736C171.649 50.3707 171.35 49.2187 170.838 48.28C170.241 47.0853 169.131 46.36 167.51 46.104C165.889 45.848 164.651 45.72 163.798 45.72C163.627 45.5493 163.499 45.08 163.414 44.312C163.414 43.4587 163.542 42.8613 163.798 42.52C167.041 42.3493 170.155 42.0507 173.142 41.624C176.129 41.1973 178.731 40.6427 180.95 39.96C181.291 39.96 181.59 40.3013 181.846 40.984C182.187 41.6667 182.358 42.1787 182.358 42.52C182.102 43.032 181.889 44.1413 181.718 45.848C181.547 47.5547 181.462 49.304 181.462 51.096V69.528C181.462 76.184 182.443 81.0907 184.406 84.248C186.454 87.32 189.654 88.856 194.006 88.856C195.883 88.856 197.675 88.5147 199.382 87.832C201.089 87.064 202.497 86.1253 203.606 85.016C204.801 83.9067 205.398 82.8827 205.398 81.944V55.064ZM265.936 40.216C269.691 40.216 272.72 41.0267 275.024 42.648C277.413 44.184 279.12 46.8293 280.144 50.584C282.875 48.1093 285.861 45.7627 289.104 43.544C292.432 41.3253 295.589 40.216 298.576 40.216C303.099 40.216 306.512 41.1547 308.816 43.032C311.12 44.9093 312.656 47.8107 313.424 51.736C314.277 55.6613 314.704 60.6533 314.704 66.712V80.536C314.704 82.4133 314.704 84.1627 314.704 85.784C314.789 87.4053 315.003 88.728 315.344 89.752C315.515 90.1787 316.112 90.5627 317.136 90.904C318.245 91.2453 319.397 91.5013 320.592 91.672C321.787 91.7573 322.64 91.8 323.152 91.8C323.408 92.1413 323.536 92.7387 323.536 93.592C323.621 94.4453 323.493 95.0427 323.152 95.384C320.592 95.2133 318.331 95.0853 316.368 95C314.491 94.8293 312.315 94.744 309.84 94.744C307.451 94.744 305.275 94.8293 303.312 95C301.349 95.0853 299.088 95.2133 296.528 95.384C296.187 95.0427 296.016 94.4453 296.016 93.592C296.101 92.7387 296.272 92.1413 296.528 91.8C297.04 91.8 297.893 91.7573 299.088 91.672C300.368 91.5013 301.563 91.2453 302.672 90.904C303.781 90.5627 304.379 90.1787 304.464 89.752C304.72 88.8987 304.848 87.832 304.848 86.552C304.933 85.1867 304.976 83.6933 304.976 82.072C304.976 81.816 304.976 81.56 304.976 81.304C304.976 81.048 304.976 80.792 304.976 80.536V67.096C304.976 62.9147 304.677 59.3733 304.08 56.472C303.568 53.5707 302.501 51.352 300.88 49.816C299.259 48.28 296.741 47.512 293.328 47.512C291.28 47.512 289.317 48.0667 287.44 49.176C285.563 50.2 284.027 51.3093 282.832 52.504C281.637 53.6133 281.04 54.3387 281.04 54.68C281.04 54.7653 281.04 55.0213 281.04 55.448C281.125 55.7893 281.168 56.0453 281.168 56.216C281.339 57.4107 281.467 58.904 281.552 60.696C281.637 62.488 281.68 63.9813 281.68 65.176V80.536C281.68 82.4133 281.68 84.1627 281.68 85.784C281.765 87.4053 281.979 88.728 282.32 89.752C282.491 90.1787 283.088 90.5627 284.112 90.904C285.221 91.2453 286.373 91.5013 287.568 91.672C288.763 91.7573 289.616 91.8 290.128 91.8C290.384 92.1413 290.512 92.7387 290.512 93.592C290.597 94.4453 290.469 95.0427 290.128 95.384C287.568 95.2133 285.307 95.0853 283.344 95C281.467 94.8293 279.291 94.744 276.816 94.744C274.427 94.744 272.251 94.8293 270.288 95C268.325 95.0853 266.064 95.2133 263.504 95.384C263.163 95.0427 262.992 94.4453 262.992 93.592C263.077 92.7387 263.248 92.1413 263.504 91.8C264.016 91.8 264.869 91.7573 266.064 91.672C267.344 91.5013 268.539 91.2453 269.648 90.904C270.757 90.5627 271.355 90.1787 271.44 89.752C271.781 88.728 271.952 87.4053 271.952 85.784C272.037 84.1627 272.08 82.4133 272.08 80.536V67.736C272.08 60.1413 271.227 54.8933 269.52 51.992C267.899 49.0053 264.827 47.512 260.304 47.512C258.427 47.512 256.592 47.9813 254.8 48.92C253.008 49.8587 251.515 50.8827 250.32 51.992C249.211 53.016 248.656 53.8267 248.656 54.424V80.536C248.656 82.4133 248.656 84.1627 248.656 85.784C248.741 87.4053 248.955 88.728 249.296 89.752C249.467 90.1787 250.064 90.5627 251.088 90.904C252.197 91.2453 253.349 91.5013 254.544 91.672C255.739 91.7573 256.592 91.8 257.104 91.8C257.36 92.1413 257.488 92.7387 257.488 93.592C257.573 94.4453 257.445 95.0427 257.104 95.384C254.544 95.2133 252.283 95.0853 250.32 95C248.443 94.8293 246.267 94.744 243.792 94.744C241.403 94.744 239.227 94.8293 237.264 95C235.301 95.0853 233.04 95.2133 230.48 95.384C230.139 95.0427 229.968 94.4453 229.968 93.592C230.053 92.7387 230.224 92.1413 230.48 91.8C230.992 91.8 231.845 91.7573 233.04 91.672C234.32 91.5013 235.515 91.2453 236.624 90.904C237.733 90.5627 238.331 90.1787 238.416 89.752C238.757 88.728 238.928 87.4053 238.928 85.784C239.013 84.1627 239.056 82.4133 239.056 80.536V57.752C239.056 56.8987 239.013 55.704 238.928 54.168C238.928 52.632 238.757 51.48 238.416 50.712C238.16 49.944 237.435 49.432 236.24 49.176C235.045 48.8347 233.851 48.664 232.656 48.664C231.461 48.5787 230.693 48.536 230.352 48.536C230.267 48.3653 230.181 47.8533 230.096 47C230.011 46.1467 230.096 45.5493 230.352 45.208C233.595 44.7813 236.752 44.1413 239.824 43.288C242.896 42.4347 245.669 41.3253 248.144 39.96C248.485 39.96 248.784 40.216 249.04 40.728C249.381 41.24 249.552 41.6667 249.552 42.008C249.552 42.264 249.467 42.8613 249.296 43.8C249.211 44.7387 249.083 45.6773 248.912 46.616C248.827 47.5547 248.784 48.1947 248.784 48.536C248.784 48.8773 248.869 49.048 249.04 49.048C249.125 49.048 249.253 48.9627 249.424 48.792C250.448 47.8533 251.813 46.744 253.52 45.464C255.227 44.0987 257.147 42.904 259.28 41.88C261.499 40.7707 263.717 40.216 265.936 40.216ZM356.494 40.088C362.041 40.088 366.777 41.2827 370.702 43.672C374.713 46.0613 377.785 49.304 379.918 53.4C382.137 57.496 383.246 62.1467 383.246 67.352C383.246 72.728 382.094 77.592 379.79 81.944C377.486 86.2107 374.329 89.624 370.318 92.184C366.307 94.6587 361.785 95.896 356.75 95.896C351.289 95.896 346.51 94.7013 342.414 92.312C338.403 89.8373 335.289 86.552 333.07 82.456C330.937 78.2747 329.87 73.5813 329.87 68.376C329.87 63 331.022 58.1787 333.326 53.912C335.715 49.6453 338.915 46.2747 342.926 43.8C346.937 41.3253 351.459 40.088 356.494 40.088ZM355.086 44.312C351.587 44.312 348.771 45.3787 346.638 47.512C344.505 49.56 342.969 52.248 342.03 55.576C341.091 58.8187 340.622 62.232 340.622 65.816C340.622 69.8267 341.262 73.8373 342.542 77.848C343.907 81.8587 345.87 85.1867 348.43 87.832C351.075 90.4773 354.275 91.8 358.03 91.8C361.614 91.8 364.43 90.776 366.478 88.728C368.611 86.5947 370.147 83.864 371.086 80.536C372.025 77.208 372.494 73.7947 372.494 70.296C372.494 66.2 371.811 62.1893 370.446 58.264C369.081 54.2533 367.118 50.9253 364.558 48.28C361.998 45.6347 358.841 44.312 355.086 44.312Z" fill="white"/>
</mask>
<g mask="url(#mask0_517_14)">
<rect x="-25" y="-173" width="440" height="440" fill="url(#paint0_linear_517_14)"/>
</g>
<defs>
<linearGradient id="paint0_linear_517_14" x1="-25" y1="-123.5" x2="394.5" y2="257" gradientUnits="userSpaceOnUse">
<stop stop-color="#2D81FF"/>
<stop offset="1" stop-color="#47CA5B"/>
</linearGradient>
</defs>
</svg>
