<svg width="379" height="89" viewBox="0 0 379 89" fill="none" xmlns="http://www.w3.org/2000/svg">
<style>
  path {
    fill: #131313
  }
  @media (prefers-color-scheme: dark) {
    path {
      fill: #fff;
    }
  }
</style>
<path d="M33.144 4.56799C35.96 4.56799 38.8613 5.03733 41.848 5.976C44.8347 6.91466 47.5653 8.28 50.04 10.072C52.6 11.864 54.648 14.1253 56.184 16.856C57.72 19.5013 58.488 22.616 58.488 26.2C58.488 29.1867 57.6347 32.088 55.928 34.904C54.3067 37.72 52.1733 40.1947 49.528 42.328C46.968 44.4613 44.28 45.9973 41.464 46.936C43.6827 50.6053 45.816 53.976 47.864 57.048C49.912 60.12 52.0453 63.192 54.264 66.264C56.4827 69.2507 58.9573 72.5787 61.688 76.248C63.48 78.6373 65.4 80.4293 67.448 81.624C69.5813 82.8187 72.3547 83.544 75.768 83.8C76.1093 84.1413 76.1947 84.7813 76.024 85.72C75.8533 86.6587 75.7253 87.2133 75.64 87.384C71.4587 87.384 67.96 87.256 65.144 87C62.4133 86.6587 60.408 86.2747 59.128 85.848C58.2747 85.5067 57.08 84.9947 55.544 84.312C54.008 83.544 52.5147 82.2213 51.064 80.344C50.552 79.6613 49.6133 78.3387 48.248 76.376C46.8827 74.4133 45.2613 72.024 43.384 69.208C41.5067 66.392 39.5013 63.4053 37.368 60.248C35.2347 57.0053 33.1867 53.848 31.224 50.776C30.5413 49.752 29.2613 49.24 27.384 49.24H20.856V72.536C20.856 72.792 20.856 73.048 20.856 73.304C20.856 73.56 20.856 73.816 20.856 74.072C20.856 75.6933 20.856 77.1867 20.856 78.552C20.9413 79.832 21.112 80.8987 21.368 81.752C21.5387 82.1787 22.2213 82.5627 23.416 82.904C24.6107 83.2453 25.8907 83.5013 27.256 83.672C28.6213 83.7573 29.56 83.8 30.072 83.8C30.328 84.1413 30.456 84.7387 30.456 85.592C30.5413 86.4453 30.4133 87.0427 30.072 87.384C27.512 87.2133 25.0373 87.0853 22.648 87C20.344 86.8293 17.9547 86.744 15.48 86.744C13.0907 86.744 10.6587 86.8293 8.184 87C5.70933 87.0853 3.192 87.2133 0.632 87.384C0.290667 87.0427 0.12 86.4453 0.12 85.592C0.205334 84.7387 0.376 84.1413 0.632 83.8C1.144 83.8 2.08267 83.7573 3.448 83.672C4.81333 83.5013 6.09333 83.2453 7.288 82.904C8.568 82.5627 9.25067 82.1787 9.336 81.752C9.67733 80.728 9.848 79.4053 9.848 77.784C9.93333 76.1627 9.976 74.4133 9.976 72.536L9.848 19.16C9.848 17.2827 9.80533 15.5333 9.72 13.912C9.72 12.2053 9.54933 10.84 9.208 9.81599C9.12267 9.304 8.44 8.92 7.16 8.66399C5.96533 8.408 4.68533 8.23733 3.32 8.15199C2.04 7.98133 1.144 7.896 0.632 7.896C0.376 7.55466 0.205334 6.95733 0.12 6.104C0.12 5.25066 0.290667 4.65333 0.632 4.312C3.192 4.39733 5.66667 4.52533 8.056 4.696C10.5307 4.78133 12.9627 4.824 15.352 4.824C17.8267 4.824 20.472 4.78133 23.288 4.696C26.1893 4.61066 29.4747 4.56799 33.144 4.56799ZM46.84 27.352C46.84 21.8907 45.3467 17.4107 42.36 13.912C39.4587 10.4133 34.552 8.66399 27.64 8.66399C26.872 8.66399 25.6773 8.70666 24.056 8.792C22.52 8.87733 21.624 9.21866 21.368 9.81599C21.0267 10.584 20.8133 11.9067 20.728 13.784C20.728 15.576 20.728 17.4107 20.728 19.288L20.856 45.4H27.512C30.7547 45.4 33.8267 44.6747 36.728 43.224C39.7147 41.688 42.1467 39.5973 44.024 36.952C45.9013 34.2213 46.84 31.0213 46.84 27.352ZM85.074 56.024C84.9887 61.3147 85.8847 65.752 87.762 69.336C89.6393 72.92 92.1567 75.608 95.314 77.4C98.4713 79.1067 101.885 79.96 105.554 79.96C107.858 79.96 109.949 79.576 111.826 78.808C113.703 77.9547 115.282 77.016 116.562 75.992C117.842 74.8827 118.738 74.0293 119.25 73.432C119.335 73.432 119.506 73.6027 119.762 73.944C120.103 74.2 120.274 74.584 120.274 75.096C120.274 75.7787 120.018 76.5467 119.506 77.4C118.738 78.5947 117.543 80.0453 115.922 81.752C114.301 83.3733 112.253 84.824 109.778 86.104C107.303 87.384 104.445 88.024 101.202 88.024C96.338 88.024 92.0287 86.872 88.274 84.568C84.5193 82.264 81.5753 79.1493 79.442 75.224C77.3087 71.2987 76.242 66.904 76.242 62.04C76.242 57.8587 76.9673 53.976 78.418 50.392C79.954 46.7227 81.9167 43.5653 84.306 40.92C86.7807 38.1893 89.4687 36.056 92.37 34.52C95.2713 32.984 98.0873 32.216 100.818 32.216C104.573 32.216 107.645 32.856 110.034 34.136C112.509 35.416 114.429 36.9947 115.794 38.872C117.245 40.7493 118.226 42.6267 118.738 44.504C119.335 46.3813 119.634 47.96 119.634 49.24C119.634 51.032 119.421 52.44 118.994 53.464C118.567 54.488 117.757 55.0427 116.562 55.128C115.794 55.2133 114.258 55.2987 111.954 55.384C109.735 55.384 107.175 55.4267 104.274 55.512C101.373 55.5973 98.514 55.6827 95.698 55.768C92.882 55.8533 90.4927 55.9387 88.53 56.024C86.5673 56.024 85.4153 56.024 85.074 56.024ZM85.714 51.416H106.066C106.834 51.416 107.474 51.2027 107.986 50.776C108.583 50.3493 108.925 49.5813 109.01 48.472C109.095 47.448 108.797 45.9973 108.114 44.12C107.431 42.2427 106.322 40.536 104.786 39C103.335 37.464 101.33 36.696 98.77 36.696C96.1247 36.696 93.9487 37.464 92.242 39C90.5353 40.4507 89.17 42.1573 88.146 44.12C87.2073 45.9973 86.5247 47.704 86.098 49.24C85.7567 50.6907 85.6287 51.416 85.714 51.416ZM136.011 17.24C136.011 16.3013 135.968 15.192 135.883 13.912C135.883 12.5467 135.712 11.48 135.371 10.712C135.03 9.77333 134.091 9.17599 132.555 8.92C131.104 8.664 129.526 8.536 127.819 8.536C127.734 8.536 127.648 8.024 127.563 7C127.563 5.89067 127.691 5.29333 127.947 5.20799C131.104 4.86666 134.176 4.26933 137.163 3.41599C140.15 2.47733 142.966 1.41066 145.611 0.215996C145.952 0.215996 146.251 0.471995 146.507 0.983994C146.848 1.41066 147.019 1.83733 147.019 2.26399C147.019 2.26399 146.763 3.20266 146.251 5.07999C145.824 6.95733 145.611 9.64533 145.611 13.144V72.536C145.611 74.4133 145.611 76.1627 145.611 77.784C145.696 79.4053 145.91 80.728 146.251 81.752C146.422 82.1787 147.019 82.5627 148.043 82.904C149.152 83.2453 150.304 83.5013 151.499 83.672C152.779 83.7573 153.675 83.8 154.187 83.8C154.443 84.1413 154.571 84.7387 154.571 85.592C154.656 86.4453 154.528 87.0427 154.187 87.384C151.627 87.2133 149.366 87.0853 147.403 87C145.44 86.8293 143.222 86.744 140.747 86.744C138.358 86.744 136.182 86.8293 134.219 87C132.342 87.0853 130.123 87.2133 127.563 87.384C127.222 87.0427 127.051 86.4453 127.051 85.592C127.136 84.7387 127.307 84.1413 127.563 83.8C128.075 83.8 128.928 83.7573 130.123 83.672C131.318 83.5013 132.47 83.2453 133.579 82.904C134.688 82.5627 135.286 82.1787 135.371 81.752C135.712 80.728 135.883 79.4053 135.883 77.784C135.968 76.1627 136.011 74.4133 136.011 72.536V17.24ZM200.398 47.064C200.398 46.9787 200.398 46.808 200.398 46.552C200.398 45.6987 200.355 44.6747 200.27 43.48C200.185 42.2 199.929 41.1333 199.502 40.28C198.905 39.0853 197.795 38.36 196.174 38.104C194.553 37.848 193.315 37.72 192.462 37.72C192.291 37.5493 192.163 37.08 192.078 36.312C192.078 35.4587 192.206 34.8613 192.462 34.52C195.705 34.3493 198.819 34.0507 201.806 33.624C204.793 33.1973 207.395 32.6427 209.614 31.96C209.955 31.96 210.254 32.3867 210.51 33.24C210.766 34.0933 210.894 34.6907 210.894 35.032C210.638 35.544 210.425 36.568 210.254 38.104C210.169 39.64 210.126 41.304 210.126 43.096V69.336C210.126 70.0187 210.169 71.384 210.254 73.432C210.339 75.3947 210.553 77.2293 210.894 78.936C211.15 79.96 212.089 80.5573 213.71 80.728C215.417 80.8987 216.697 81.0267 217.55 81.112C217.977 81.112 218.233 81.112 218.318 81.112C218.489 81.1973 218.574 81.4107 218.574 81.752C218.659 82.0933 218.702 82.3493 218.702 82.52C218.702 82.6053 218.617 82.9467 218.446 83.544C218.275 84.1413 218.019 84.44 217.678 84.44C215.545 84.5253 213.198 84.8667 210.638 85.464C208.163 86.0613 206.03 86.616 204.238 87.128C202.446 87.7253 201.507 88.024 201.422 88.024C201.081 88.024 200.825 87.768 200.654 87.256C200.483 86.8293 200.398 86.4027 200.398 85.976V80.216C200.398 79.8747 200.355 79.704 200.27 79.704C200.185 79.6187 200.142 79.576 200.142 79.576C199.033 80.7707 197.497 82.0507 195.534 83.416C193.571 84.696 191.438 85.7627 189.134 86.616C186.83 87.4693 184.611 87.896 182.478 87.896C179.15 87.896 176.462 87.128 174.414 85.592C172.366 83.9707 170.787 81.9227 169.678 79.448C168.569 76.888 167.801 74.1573 167.374 71.256C167.033 68.3547 166.862 65.5813 166.862 62.936V47.064C166.862 46.2107 166.819 45.1013 166.734 43.736C166.649 42.3707 166.35 41.2187 165.838 40.28C165.241 39.0853 164.131 38.36 162.51 38.104C160.889 37.848 159.651 37.72 158.798 37.72C158.627 37.5493 158.499 37.08 158.414 36.312C158.414 35.4587 158.542 34.8613 158.798 34.52C162.041 34.3493 165.155 34.0507 168.142 33.624C171.129 33.1973 173.731 32.6427 175.95 31.96C176.291 31.96 176.59 32.3013 176.846 32.984C177.187 33.6667 177.358 34.1787 177.358 34.52C177.102 35.032 176.889 36.1413 176.718 37.848C176.547 39.5547 176.462 41.304 176.462 43.096V61.528C176.462 68.184 177.443 73.0907 179.406 76.248C181.454 79.32 184.654 80.856 189.006 80.856C190.883 80.856 192.675 80.5147 194.382 79.832C196.089 79.064 197.497 78.1253 198.606 77.016C199.801 75.9067 200.398 74.8827 200.398 73.944V47.064ZM260.936 32.216C264.691 32.216 267.72 33.0267 270.024 34.648C272.413 36.184 274.12 38.8293 275.144 42.584C277.875 40.1093 280.861 37.7627 284.104 35.544C287.432 33.3253 290.589 32.216 293.576 32.216C298.099 32.216 301.512 33.1547 303.816 35.032C306.12 36.9093 307.656 39.8107 308.424 43.736C309.277 47.6613 309.704 52.6533 309.704 58.712V72.536C309.704 74.4133 309.704 76.1627 309.704 77.784C309.789 79.4053 310.003 80.728 310.344 81.752C310.515 82.1787 311.112 82.5627 312.136 82.904C313.245 83.2453 314.397 83.5013 315.592 83.672C316.787 83.7573 317.64 83.8 318.152 83.8C318.408 84.1413 318.536 84.7387 318.536 85.592C318.621 86.4453 318.493 87.0427 318.152 87.384C315.592 87.2133 313.331 87.0853 311.368 87C309.491 86.8293 307.315 86.744 304.84 86.744C302.451 86.744 300.275 86.8293 298.312 87C296.349 87.0853 294.088 87.2133 291.528 87.384C291.187 87.0427 291.016 86.4453 291.016 85.592C291.101 84.7387 291.272 84.1413 291.528 83.8C292.04 83.8 292.893 83.7573 294.088 83.672C295.368 83.5013 296.563 83.2453 297.672 82.904C298.781 82.5627 299.379 82.1787 299.464 81.752C299.72 80.8987 299.848 79.832 299.848 78.552C299.933 77.1867 299.976 75.6933 299.976 74.072C299.976 73.816 299.976 73.56 299.976 73.304C299.976 73.048 299.976 72.792 299.976 72.536V59.096C299.976 54.9147 299.677 51.3733 299.08 48.472C298.568 45.5707 297.501 43.352 295.88 41.816C294.259 40.28 291.741 39.512 288.328 39.512C286.28 39.512 284.317 40.0667 282.44 41.176C280.563 42.2 279.027 43.3093 277.832 44.504C276.637 45.6133 276.04 46.3387 276.04 46.68C276.04 46.7653 276.04 47.0213 276.04 47.448C276.125 47.7893 276.168 48.0453 276.168 48.216C276.339 49.4107 276.467 50.904 276.552 52.696C276.637 54.488 276.68 55.9813 276.68 57.176V72.536C276.68 74.4133 276.68 76.1627 276.68 77.784C276.765 79.4053 276.979 80.728 277.32 81.752C277.491 82.1787 278.088 82.5627 279.112 82.904C280.221 83.2453 281.373 83.5013 282.568 83.672C283.763 83.7573 284.616 83.8 285.128 83.8C285.384 84.1413 285.512 84.7387 285.512 85.592C285.597 86.4453 285.469 87.0427 285.128 87.384C282.568 87.2133 280.307 87.0853 278.344 87C276.467 86.8293 274.291 86.744 271.816 86.744C269.427 86.744 267.251 86.8293 265.288 87C263.325 87.0853 261.064 87.2133 258.504 87.384C258.163 87.0427 257.992 86.4453 257.992 85.592C258.077 84.7387 258.248 84.1413 258.504 83.8C259.016 83.8 259.869 83.7573 261.064 83.672C262.344 83.5013 263.539 83.2453 264.648 82.904C265.757 82.5627 266.355 82.1787 266.44 81.752C266.781 80.728 266.952 79.4053 266.952 77.784C267.037 76.1627 267.08 74.4133 267.08 72.536V59.736C267.08 52.1413 266.227 46.8933 264.52 43.992C262.899 41.0053 259.827 39.512 255.304 39.512C253.427 39.512 251.592 39.9813 249.8 40.92C248.008 41.8587 246.515 42.8827 245.32 43.992C244.211 45.016 243.656 45.8267 243.656 46.424V72.536C243.656 74.4133 243.656 76.1627 243.656 77.784C243.741 79.4053 243.955 80.728 244.296 81.752C244.467 82.1787 245.064 82.5627 246.088 82.904C247.197 83.2453 248.349 83.5013 249.544 83.672C250.739 83.7573 251.592 83.8 252.104 83.8C252.36 84.1413 252.488 84.7387 252.488 85.592C252.573 86.4453 252.445 87.0427 252.104 87.384C249.544 87.2133 247.283 87.0853 245.32 87C243.443 86.8293 241.267 86.744 238.792 86.744C236.403 86.744 234.227 86.8293 232.264 87C230.301 87.0853 228.04 87.2133 225.48 87.384C225.139 87.0427 224.968 86.4453 224.968 85.592C225.053 84.7387 225.224 84.1413 225.48 83.8C225.992 83.8 226.845 83.7573 228.04 83.672C229.32 83.5013 230.515 83.2453 231.624 82.904C232.733 82.5627 233.331 82.1787 233.416 81.752C233.757 80.728 233.928 79.4053 233.928 77.784C234.013 76.1627 234.056 74.4133 234.056 72.536V49.752C234.056 48.8987 234.013 47.704 233.928 46.168C233.928 44.632 233.757 43.48 233.416 42.712C233.16 41.944 232.435 41.432 231.24 41.176C230.045 40.8347 228.851 40.664 227.656 40.664C226.461 40.5787 225.693 40.536 225.352 40.536C225.267 40.3653 225.181 39.8533 225.096 39C225.011 38.1467 225.096 37.5493 225.352 37.208C228.595 36.7813 231.752 36.1413 234.824 35.288C237.896 34.4347 240.669 33.3253 243.144 31.96C243.485 31.96 243.784 32.216 244.04 32.728C244.381 33.24 244.552 33.6667 244.552 34.008C244.552 34.264 244.467 34.8613 244.296 35.8C244.211 36.7387 244.083 37.6773 243.912 38.616C243.827 39.5547 243.784 40.1947 243.784 40.536C243.784 40.8773 243.869 41.048 244.04 41.048C244.125 41.048 244.253 40.9627 244.424 40.792C245.448 39.8533 246.813 38.744 248.52 37.464C250.227 36.0987 252.147 34.904 254.28 33.88C256.499 32.7707 258.717 32.216 260.936 32.216ZM351.494 32.088C357.041 32.088 361.777 33.2827 365.702 35.672C369.713 38.0613 372.785 41.304 374.918 45.4C377.137 49.496 378.246 54.1467 378.246 59.352C378.246 64.728 377.094 69.592 374.79 73.944C372.486 78.2107 369.329 81.624 365.318 84.184C361.307 86.6587 356.785 87.896 351.75 87.896C346.289 87.896 341.51 86.7013 337.414 84.312C333.403 81.8373 330.289 78.552 328.07 74.456C325.937 70.2747 324.87 65.5813 324.87 60.376C324.87 55 326.022 50.1787 328.326 45.912C330.715 41.6453 333.915 38.2747 337.926 35.8C341.937 33.3253 346.459 32.088 351.494 32.088ZM350.086 36.312C346.587 36.312 343.771 37.3787 341.638 39.512C339.505 41.56 337.969 44.248 337.03 47.576C336.091 50.8187 335.622 54.232 335.622 57.816C335.622 61.8267 336.262 65.8373 337.542 69.848C338.907 73.8587 340.87 77.1867 343.43 79.832C346.075 82.4773 349.275 83.8 353.03 83.8C356.614 83.8 359.43 82.776 361.478 80.728C363.611 78.5947 365.147 75.864 366.086 72.536C367.025 69.208 367.494 65.7947 367.494 62.296C367.494 58.2 366.811 54.1893 365.446 50.264C364.081 46.2533 362.118 42.9253 359.558 40.28C356.998 37.6347 353.841 36.312 350.086 36.312Z" />
</svg>
