<svg width="474" height="111" viewBox="0 0 474 111" fill="none" xmlns="http://www.w3.org/2000/svg">
<path d="M41.68 5.95999C45.2 5.95999 48.8267 6.54666 52.56 7.72C56.2933 8.89333 59.7067 10.6 62.8 12.84C66 15.08 68.56 17.9067 70.48 21.32C72.4 24.6267 73.36 28.52 73.36 33C73.36 36.7333 72.2933 40.36 70.16 43.88C68.1333 47.4 65.4667 50.4933 62.16 53.16C58.96 55.8267 55.6 57.7467 52.08 58.92C54.8533 63.5067 57.52 67.72 60.08 71.56C62.64 75.4 65.3067 79.24 68.08 83.08C70.8533 86.8133 73.9467 90.9733 77.36 95.56C79.6 98.5467 82 100.787 84.56 102.28C87.2267 103.773 90.6933 104.68 94.96 105C95.3867 105.427 95.4933 106.227 95.28 107.4C95.0667 108.573 94.9067 109.267 94.8 109.48C89.5733 109.48 85.2 109.32 81.68 109C78.2667 108.573 75.76 108.093 74.16 107.56C73.0933 107.133 71.6 106.493 69.68 105.64C67.76 104.68 65.8933 103.027 64.08 100.68C63.44 99.8267 62.2667 98.1733 60.56 95.72C58.8533 93.2667 56.8267 90.28 54.48 86.76C52.1333 83.24 49.6267 79.5067 46.96 75.56C44.2933 71.5067 41.7333 67.56 39.28 63.72C38.4267 62.44 36.8267 61.8 34.48 61.8H26.32V90.92C26.32 91.24 26.32 91.56 26.32 91.88C26.32 92.2 26.32 92.52 26.32 92.84C26.32 94.8667 26.32 96.7333 26.32 98.44C26.4267 100.04 26.64 101.373 26.96 102.44C27.1733 102.973 28.0267 103.453 29.52 103.88C31.0133 104.307 32.6133 104.627 34.32 104.84C36.0267 104.947 37.2 105 37.84 105C38.16 105.427 38.32 106.173 38.32 107.24C38.4267 108.307 38.2667 109.053 37.84 109.48C34.64 109.267 31.5467 109.107 28.56 109C25.68 108.787 22.6933 108.68 19.6 108.68C16.6133 108.68 13.5733 108.787 10.48 109C7.38667 109.107 4.24 109.267 1.04 109.48C0.613334 109.053 0.4 108.307 0.4 107.24C0.506667 106.173 0.72 105.427 1.04 105C1.68 105 2.85333 104.947 4.56 104.84C6.26667 104.627 7.86667 104.307 9.36 103.88C10.96 103.453 11.8133 102.973 11.92 102.44C12.3467 101.16 12.56 99.5067 12.56 97.48C12.6667 95.4533 12.72 93.2667 12.72 90.92L12.56 24.2C12.56 21.8533 12.5067 19.6667 12.4 17.64C12.4 15.5067 12.1867 13.8 11.76 12.52C11.6533 11.88 10.8 11.4 9.2 11.08C7.70667 10.76 6.10667 10.5467 4.4 10.44C2.8 10.2267 1.68 10.12 1.04 10.12C0.72 9.69333 0.506667 8.94666 0.4 7.88C0.4 6.81333 0.613334 6.06666 1.04 5.64C4.24 5.74666 7.33333 5.90666 10.32 6.12C13.4133 6.22666 16.4533 6.28 19.44 6.28C22.5333 6.28 25.84 6.22666 29.36 6.12C32.9867 6.01333 37.0933 5.95999 41.68 5.95999ZM58.8 34.44C58.8 27.6133 56.9333 22.0133 53.2 17.64C49.5733 13.2667 43.44 11.08 34.8 11.08C33.84 11.08 32.3467 11.1333 30.32 11.24C28.4 11.3467 27.28 11.7733 26.96 12.52C26.5333 13.48 26.2667 15.1333 26.16 17.48C26.16 19.72 26.16 22.0133 26.16 24.36L26.32 57H34.64C38.6933 57 42.5333 56.0933 46.16 54.28C49.8933 52.36 52.9333 49.7467 55.28 46.44C57.6267 43.0267 58.8 39.0267 58.8 34.44ZM106.593 70.28C106.486 76.8933 107.606 82.44 109.953 86.92C112.299 91.4 115.446 94.76 119.393 97C123.339 99.1333 127.606 100.2 132.193 100.2C135.073 100.2 137.686 99.72 140.033 98.76C142.379 97.6933 144.353 96.52 145.953 95.24C147.553 93.8533 148.673 92.7867 149.313 92.04C149.419 92.04 149.633 92.2533 149.953 92.68C150.379 93 150.593 93.48 150.593 94.12C150.593 94.9733 150.273 95.9333 149.633 97C148.673 98.4933 147.179 100.307 145.153 102.44C143.126 104.467 140.566 106.28 137.473 107.88C134.379 109.48 130.806 110.28 126.753 110.28C120.673 110.28 115.286 108.84 110.593 105.96C105.899 103.08 102.219 99.1867 99.5525 94.28C96.8858 89.3733 95.5525 83.88 95.5525 77.8C95.5525 72.5733 96.4592 67.72 98.2725 63.24C100.193 58.6533 102.646 54.7067 105.633 51.4C108.726 47.9867 112.086 45.32 115.713 43.4C119.339 41.48 122.859 40.52 126.273 40.52C130.966 40.52 134.806 41.32 137.793 42.92C140.886 44.52 143.286 46.4933 144.993 48.84C146.806 51.1867 148.033 53.5333 148.673 55.88C149.419 58.2267 149.793 60.2 149.793 61.8C149.793 64.04 149.526 65.8 148.993 67.08C148.459 68.36 147.446 69.0533 145.953 69.16C144.993 69.2667 143.073 69.3733 140.193 69.48C137.419 69.48 134.219 69.5333 130.593 69.64C126.966 69.7467 123.393 69.8533 119.873 69.96C116.353 70.0667 113.366 70.1733 110.913 70.28C108.459 70.28 107.019 70.28 106.593 70.28ZM107.393 64.52H132.833C133.793 64.52 134.593 64.2533 135.233 63.72C135.979 63.1867 136.406 62.2267 136.513 60.84C136.619 59.56 136.246 57.7467 135.393 55.4C134.539 53.0533 133.153 50.92 131.233 49C129.419 47.08 126.913 46.12 123.713 46.12C120.406 46.12 117.686 47.08 115.553 49C113.419 50.8133 111.713 52.9467 110.432 55.4C109.259 57.7467 108.406 59.88 107.873 61.8C107.446 63.6133 107.286 64.52 107.393 64.52ZM170.264 21.8C170.264 20.6267 170.21 19.24 170.104 17.64C170.104 15.9333 169.89 14.6 169.464 13.64C169.037 12.4667 167.864 11.72 165.944 11.4C164.13 11.08 162.157 10.92 160.024 10.92C159.917 10.92 159.81 10.28 159.704 9C159.704 7.61333 159.864 6.86666 160.184 6.75999C164.13 6.33333 167.97 5.58666 171.704 4.51999C175.437 3.34666 178.957 2.01333 182.264 0.519995C182.69 0.519995 183.064 0.839994 183.384 1.47999C183.81 2.01332 184.024 2.54666 184.024 3.07999C184.024 3.07999 183.704 4.25332 183.064 6.59999C182.53 8.94666 182.264 12.3067 182.264 16.68V90.92C182.264 93.2667 182.264 95.4533 182.264 97.48C182.37 99.5067 182.637 101.16 183.064 102.44C183.277 102.973 184.024 103.453 185.304 103.88C186.69 104.307 188.13 104.627 189.624 104.84C191.224 104.947 192.344 105 192.984 105C193.304 105.427 193.464 106.173 193.464 107.24C193.57 108.307 193.41 109.053 192.984 109.48C189.784 109.267 186.957 109.107 184.504 109C182.05 108.787 179.277 108.68 176.184 108.68C173.197 108.68 170.477 108.787 168.024 109C165.677 109.107 162.904 109.267 159.704 109.48C159.277 109.053 159.064 108.307 159.064 107.24C159.17 106.173 159.384 105.427 159.704 105C160.344 105 161.41 104.947 162.904 104.84C164.397 104.627 165.837 104.307 167.224 103.88C168.61 103.453 169.357 102.973 169.464 102.44C169.89 101.16 170.104 99.5067 170.104 97.48C170.21 95.4533 170.264 93.2667 170.264 90.92V21.8ZM250.748 59.08C250.748 58.9733 250.748 58.76 250.748 58.44C250.748 57.3733 250.694 56.0933 250.588 54.6C250.481 53 250.161 51.6667 249.628 50.6C248.881 49.1067 247.494 48.2 245.468 47.88C243.441 47.56 241.894 47.4 240.828 47.4C240.614 47.1867 240.454 46.6 240.348 45.64C240.348 44.5733 240.508 43.8267 240.828 43.4C244.881 43.1867 248.774 42.8133 252.508 42.28C256.241 41.7467 259.494 41.0533 262.268 40.2C262.694 40.2 263.068 40.7333 263.388 41.8C263.708 42.8667 263.868 43.6133 263.868 44.04C263.548 44.68 263.281 45.96 263.068 47.88C262.961 49.8 262.908 51.88 262.908 54.12V86.92C262.908 87.7733 262.961 89.48 263.068 92.04C263.174 94.4933 263.441 96.7867 263.868 98.92C264.188 100.2 265.361 100.947 267.388 101.16C269.521 101.373 271.121 101.533 272.188 101.64C272.721 101.64 273.041 101.64 273.148 101.64C273.361 101.747 273.468 102.013 273.468 102.44C273.574 102.867 273.628 103.187 273.628 103.4C273.628 103.507 273.521 103.933 273.308 104.68C273.094 105.427 272.774 105.8 272.348 105.8C269.681 105.907 266.748 106.333 263.548 107.08C260.454 107.827 257.788 108.52 255.548 109.16C253.308 109.907 252.134 110.28 252.028 110.28C251.601 110.28 251.281 109.96 251.068 109.32C250.854 108.787 250.748 108.253 250.748 107.72V100.52C250.748 100.093 250.694 99.88 250.588 99.88C250.481 99.7733 250.428 99.72 250.428 99.72C249.041 101.213 247.121 102.813 244.668 104.52C242.214 106.12 239.548 107.453 236.668 108.52C233.788 109.587 231.014 110.12 228.348 110.12C224.188 110.12 220.828 109.16 218.268 107.24C215.708 105.213 213.734 102.653 212.348 99.56C210.961 96.36 210.001 92.9467 209.468 89.32C209.041 85.6933 208.828 82.2267 208.828 78.92V59.08C208.828 58.0133 208.774 56.6267 208.668 54.92C208.561 53.2133 208.188 51.7733 207.548 50.6C206.801 49.1067 205.414 48.2 203.388 47.88C201.361 47.56 199.814 47.4 198.748 47.4C198.534 47.1867 198.374 46.6 198.268 45.64C198.268 44.5733 198.428 43.8267 198.748 43.4C202.801 43.1867 206.694 42.8133 210.428 42.28C214.161 41.7467 217.414 41.0533 220.188 40.2C220.614 40.2 220.988 40.6267 221.308 41.48C221.734 42.3333 221.948 42.9733 221.948 43.4C221.628 44.04 221.361 45.4267 221.148 47.56C220.934 49.6933 220.828 51.88 220.828 54.12V77.16C220.828 85.48 222.054 91.6133 224.508 95.56C227.068 99.4 231.068 101.32 236.508 101.32C238.854 101.32 241.094 100.893 243.227 100.04C245.361 99.08 247.121 97.9067 248.508 96.52C250.001 95.1333 250.748 93.8533 250.748 92.68V59.08ZM326.42 40.52C331.113 40.52 334.9 41.5333 337.78 43.56C340.767 45.48 342.9 48.7867 344.18 53.48C347.593 50.3867 351.327 47.4533 355.38 44.68C359.54 41.9067 363.487 40.52 367.22 40.52C372.873 40.52 377.14 41.6933 380.02 44.04C382.9 46.3867 384.82 50.0133 385.78 54.92C386.847 59.8267 387.38 66.0667 387.38 73.64V90.92C387.38 93.2667 387.38 95.4533 387.38 97.48C387.487 99.5067 387.753 101.16 388.18 102.44C388.393 102.973 389.14 103.453 390.42 103.88C391.807 104.307 393.247 104.627 394.74 104.84C396.233 104.947 397.3 105 397.94 105C398.26 105.427 398.42 106.173 398.42 107.24C398.527 108.307 398.367 109.053 397.94 109.48C394.74 109.267 391.913 109.107 389.46 109C387.113 108.787 384.393 108.68 381.3 108.68C378.313 108.68 375.593 108.787 373.14 109C370.687 109.107 367.86 109.267 364.66 109.48C364.233 109.053 364.02 108.307 364.02 107.24C364.127 106.173 364.34 105.427 364.66 105C365.3 105 366.367 104.947 367.86 104.84C369.46 104.627 370.953 104.307 372.34 103.88C373.727 103.453 374.473 102.973 374.58 102.44C374.9 101.373 375.06 100.04 375.06 98.44C375.167 96.7333 375.22 94.8667 375.22 92.84C375.22 92.52 375.22 92.2 375.22 91.88C375.22 91.56 375.22 91.24 375.22 90.92V74.12C375.22 68.8933 374.847 64.4667 374.1 60.84C373.46 57.2133 372.127 54.44 370.1 52.52C368.073 50.6 364.927 49.64 360.66 49.64C358.1 49.64 355.647 50.3333 353.3 51.72C350.953 53 349.033 54.3867 347.54 55.88C346.047 57.2667 345.3 58.1733 345.3 58.6C345.3 58.7067 345.3 59.0267 345.3 59.56C345.407 59.9867 345.46 60.3067 345.46 60.52C345.673 62.0133 345.833 63.88 345.94 66.12C346.047 68.36 346.1 70.2267 346.1 71.72V90.92C346.1 93.2667 346.1 95.4533 346.1 97.48C346.207 99.5067 346.473 101.16 346.9 102.44C347.113 102.973 347.86 103.453 349.14 103.88C350.527 104.307 351.967 104.627 353.46 104.84C354.953 104.947 356.02 105 356.66 105C356.98 105.427 357.14 106.173 357.14 107.24C357.247 108.307 357.087 109.053 356.66 109.48C353.46 109.267 350.633 109.107 348.18 109C345.833 108.787 343.113 108.68 340.02 108.68C337.033 108.68 334.313 108.787 331.86 109C329.407 109.107 326.58 109.267 323.38 109.48C322.953 109.053 322.74 108.307 322.74 107.24C322.847 106.173 323.06 105.427 323.38 105C324.02 105 325.087 104.947 326.58 104.84C328.18 104.627 329.673 104.307 331.06 103.88C332.447 103.453 333.193 102.973 333.3 102.44C333.727 101.16 333.94 99.5067 333.94 97.48C334.047 95.4533 334.1 93.2667 334.1 90.92V74.92C334.1 65.4267 333.033 58.8667 330.9 55.24C328.873 51.5067 325.033 49.64 319.38 49.64C317.033 49.64 314.74 50.2267 312.5 51.4C310.26 52.5733 308.393 53.8533 306.9 55.24C305.513 56.52 304.82 57.5333 304.82 58.28V90.92C304.82 93.2667 304.82 95.4533 304.82 97.48C304.927 99.5067 305.193 101.16 305.62 102.44C305.833 102.973 306.58 103.453 307.86 103.88C309.247 104.307 310.687 104.627 312.18 104.84C313.673 104.947 314.74 105 315.38 105C315.7 105.427 315.86 106.173 315.86 107.24C315.967 108.307 315.807 109.053 315.38 109.48C312.18 109.267 309.353 109.107 306.9 109C304.553 108.787 301.833 108.68 298.74 108.68C295.753 108.68 293.033 108.787 290.58 109C288.127 109.107 285.3 109.267 282.1 109.48C281.673 109.053 281.46 108.307 281.46 107.24C281.567 106.173 281.78 105.427 282.1 105C282.74 105 283.807 104.947 285.3 104.84C286.9 104.627 288.393 104.307 289.78 103.88C291.167 103.453 291.913 102.973 292.02 102.44C292.447 101.16 292.66 99.5067 292.66 97.48C292.767 95.4533 292.82 93.2667 292.82 90.92V62.44C292.82 61.3733 292.767 59.88 292.66 57.96C292.66 56.04 292.447 54.6 292.02 53.64C291.7 52.68 290.793 52.04 289.3 51.72C287.807 51.2933 286.313 51.08 284.82 51.08C283.327 50.9733 282.367 50.92 281.94 50.92C281.833 50.7067 281.727 50.0667 281.62 49C281.513 47.9333 281.62 47.1867 281.94 46.76C285.993 46.2267 289.94 45.4267 293.78 44.36C297.62 43.2933 301.087 41.9067 304.18 40.2C304.607 40.2 304.98 40.52 305.3 41.16C305.727 41.8 305.94 42.3333 305.94 42.76C305.94 43.08 305.833 43.8267 305.62 45C305.513 46.1733 305.353 47.3467 305.14 48.52C305.033 49.6933 304.98 50.4933 304.98 50.92C304.98 51.3467 305.087 51.56 305.3 51.56C305.407 51.56 305.567 51.4533 305.78 51.24C307.06 50.0667 308.767 48.68 310.9 47.08C313.033 45.3733 315.433 43.88 318.1 42.6C320.873 41.2133 323.647 40.52 326.42 40.52ZM439.618 40.36C446.551 40.36 452.471 41.8533 457.378 44.84C462.391 47.8267 466.231 51.88 468.898 57C471.671 62.12 473.058 67.9333 473.058 74.44C473.058 81.16 471.618 87.24 468.738 92.68C465.858 98.0133 461.911 102.28 456.898 105.48C451.884 108.573 446.231 110.12 439.938 110.12C433.111 110.12 427.138 108.627 422.018 105.64C417.004 102.547 413.111 98.44 410.338 93.32C407.671 88.0933 406.338 82.2267 406.338 75.72C406.338 69 407.778 62.9733 410.658 57.64C413.644 52.3067 417.644 48.0933 422.658 45C427.671 41.9067 433.324 40.36 439.618 40.36ZM437.858 45.64C433.484 45.64 429.964 46.9733 427.298 49.64C424.631 52.2 422.711 55.56 421.538 59.72C420.364 63.7733 419.778 68.04 419.778 72.52C419.778 77.5333 420.578 82.5467 422.178 87.56C423.884 92.5733 426.338 96.7333 429.538 100.04C432.844 103.347 436.844 105 441.538 105C446.018 105 449.538 103.72 452.098 101.16C454.764 98.4933 456.684 95.08 457.858 90.92C459.031 86.76 459.618 82.4933 459.618 78.12C459.618 73 458.764 67.9867 457.058 63.08C455.351 58.0667 452.898 53.9067 449.698 50.6C446.498 47.2933 442.551 45.64 437.858 45.64Z" fill="url(#paint0_linear_522_3)"/>
<defs>
<linearGradient id="paint0_linear_522_3" x1="-255.397" y1="56.5" x2="677.483" y2="53.3429" gradientUnits="userSpaceOnUse">
<stop stop-color="#2D81FF"/>
<stop offset="1" stop-color="#47CA5B"/>
</linearGradient>
</defs>
</svg>
